<svg width="66" height="46" viewBox="0 0 66 46" fill="none" xmlns="http://www.w3.org/2000/svg">
<path d="M1.81641 32.9531H3.49219C4.01953 32.9531 4.44727 33.0098 4.77539 33.123C5.0957 33.2363 5.36719 33.4277 5.58984 33.6973C5.94531 34.123 6.12305 34.6367 6.12305 35.2383C6.12305 36.1523 5.68359 36.8496 4.80469 37.3301C5.87109 37.5957 6.4043 38.2637 6.4043 39.334C6.4043 39.7754 6.31055 40.1914 6.12305 40.582C5.94336 40.9688 5.68945 41.2812 5.36133 41.5195C5.09961 41.7109 4.8125 41.8379 4.5 41.9004C4.33594 41.9316 4.13867 41.957 3.9082 41.9766C3.67773 41.9922 3.4043 42 3.08789 42H0.703125L1.81641 32.9531ZM3 34.2012L2.67188 36.9082H3.05273C4.20117 36.9082 4.77539 36.373 4.77539 35.3027C4.77539 34.5684 4.33789 34.2012 3.46289 34.2012H3ZM2.53711 37.9805L2.19727 40.752H3.09961C3.77148 40.752 4.23242 40.668 4.48242 40.5C4.86523 40.2461 5.05664 39.8242 5.05664 39.2344C5.05664 39.0117 5.02344 38.8223 4.95703 38.666C4.89453 38.5059 4.79492 38.375 4.6582 38.2734C4.52148 38.1719 4.34375 38.0977 4.125 38.0508C3.91016 38.0039 3.65039 37.9805 3.3457 37.9805H2.53711ZM9.89648 33.8555C9.89648 34.043 9.82812 34.2051 9.69141 34.3418C9.55469 34.4785 9.39062 34.5469 9.19922 34.5469C9.00781 34.5469 8.8418 34.4766 8.70117 34.3359C8.56445 34.1875 8.49609 34.0176 8.49609 33.8262C8.49609 33.6348 8.5625 33.4727 8.69531 33.3398C8.83203 33.2031 8.99414 33.1348 9.18164 33.1348C9.37305 33.1348 9.53906 33.207 9.67969 33.3516C9.82422 33.4922 9.89648 33.6602 9.89648 33.8555ZM9.49219 36.4805L8.8125 42H7.51758L8.19727 36.4805H9.49219ZM17.4023 32.1035L16.1836 42H14.8945L14.9648 41.4082C14.6445 41.6934 14.3672 41.8867 14.1328 41.9883C13.9023 42.082 13.6172 42.1289 13.2773 42.1289C12.5039 42.1289 11.8711 41.873 11.3789 41.3613C10.8867 40.8457 10.6406 40.1816 10.6406 39.3691C10.6406 38.502 10.9102 37.7812 11.4492 37.207C11.9883 36.6328 12.666 36.3457 13.4824 36.3457C13.9004 36.3457 14.252 36.418 14.5371 36.5625C14.834 36.7109 15.1445 36.9629 15.4688 37.3184L16.1074 32.1035H17.4023ZM15.2695 39C15.2695 38.5312 15.125 38.1523 14.8359 37.8633C14.5469 37.5742 14.168 37.4297 13.6992 37.4297C13.1914 37.4297 12.7715 37.6191 12.4395 37.998C12.1074 38.377 11.9414 38.8555 11.9414 39.4336C11.9414 39.9219 12.084 40.3145 12.3691 40.6113C12.6543 40.9043 13.0332 41.0508 13.5059 41.0508C13.998 41.0508 14.4141 40.8516 14.7539 40.4531C15.0977 40.0625 15.2695 39.5781 15.2695 39ZM30.6855 32.9531L25.9512 42.3867L24.1582 36.0586L21 42.4922L18.2227 32.9531H19.5938L21.2871 39.1348L24.4688 32.6426L26.291 38.9707L29.25 32.9531H30.6855ZM31.207 39.7031C31.207 40.1094 31.3477 40.4434 31.6289 40.7051C31.9141 40.9668 32.2773 41.0977 32.7188 41.0977C33.3242 41.0977 33.7891 40.8711 34.1133 40.418L35.0801 40.9512C34.7441 41.4043 34.3984 41.7207 34.043 41.9004C33.6836 42.084 33.2344 42.1758 32.6953 42.1758C31.8398 42.1758 31.1582 41.9238 30.6504 41.4199C30.1426 40.916 29.8887 40.2422 29.8887 39.3984C29.8887 38.5156 30.168 37.7773 30.7266 37.1836C31.2812 36.5938 31.9824 36.2988 32.8301 36.2988C33.6504 36.2988 34.2969 36.5645 34.7695 37.0957C35.25 37.6309 35.4902 38.3477 35.4902 39.2461C35.4902 39.3398 35.4844 39.4922 35.4727 39.7031H31.207ZM34.1777 38.6602C34.041 37.8086 33.5703 37.3828 32.7656 37.3828C32.0039 37.3828 31.5078 37.8086 31.2773 38.6602H34.1777ZM42.7148 36.4805L42.0352 42H40.7402L40.8164 41.4023C40.2617 41.8867 39.6875 42.1289 39.0938 42.1289C38.3633 42.1289 37.7676 41.8809 37.3066 41.3848C36.8457 40.8887 36.6152 40.2461 36.6152 39.457C36.6152 38.5469 36.8789 37.8008 37.4062 37.2188C37.9414 36.6367 38.627 36.3457 39.4629 36.3457C39.8574 36.3457 40.1934 36.4102 40.4707 36.5391C40.752 36.668 41.0391 36.8906 41.332 37.207L41.4199 36.4805H42.7148ZM41.1387 39.082C41.1387 38.5938 40.998 38.1973 40.7168 37.8926C40.4355 37.584 40.0723 37.4297 39.627 37.4297C39.1426 37.4297 38.7363 37.6191 38.4082 37.998C38.0801 38.3809 37.916 38.8496 37.916 39.4043C37.916 39.8887 38.0527 40.2852 38.3262 40.5938C38.5996 40.9023 38.9512 41.0566 39.3809 41.0566C39.8574 41.0566 40.2695 40.8633 40.6172 40.4766C40.9648 40.082 41.1387 39.6172 41.1387 39.082ZM45.7676 37.6816L45.2344 42H43.9395L44.4727 37.6816H43.7402L43.8867 36.4805H44.6191L44.9355 33.9199H46.2305L45.9141 36.4805H47.1094L46.9629 37.6816H45.7676ZM50.0098 32.1035L49.4121 36.9492C49.9316 36.5469 50.459 36.3457 50.9941 36.3457C51.5332 36.3457 51.9629 36.4883 52.2832 36.7734C52.6152 37.0547 52.7812 37.4238 52.7812 37.8809C52.7812 37.9902 52.7754 38.1152 52.7637 38.2559C52.752 38.3926 52.7363 38.5488 52.7168 38.7246L52.3125 42H51.0176L51.4277 38.6543C51.4512 38.4746 51.4629 38.3125 51.4629 38.168C51.4629 37.6758 51.1738 37.4297 50.5957 37.4297C49.7676 37.4297 49.2852 37.9902 49.1484 39.1113L48.791 42H47.4961L48.7148 32.1035H50.0098ZM55.4531 39.7031C55.4531 40.1094 55.5938 40.4434 55.875 40.7051C56.1602 40.9668 56.5234 41.0977 56.9648 41.0977C57.5703 41.0977 58.0352 40.8711 58.3594 40.418L59.3262 40.9512C58.9902 41.4043 58.6445 41.7207 58.2891 41.9004C57.9297 42.084 57.4805 42.1758 56.9414 42.1758C56.0859 42.1758 55.4043 41.9238 54.8965 41.4199C54.3887 40.916 54.1348 40.2422 54.1348 39.3984C54.1348 38.5156 54.4141 37.7773 54.9727 37.1836C55.5273 36.5938 56.2285 36.2988 57.0762 36.2988C57.8965 36.2988 58.543 36.5645 59.0156 37.0957C59.4961 37.6309 59.7363 38.3477 59.7363 39.2461C59.7363 39.3398 59.7305 39.4922 59.7188 39.7031H55.4531ZM58.4238 38.6602C58.2871 37.8086 57.8164 37.3828 57.0117 37.3828C56.25 37.3828 55.7539 37.8086 55.5234 38.6602H58.4238ZM62.8418 36.4805L62.7832 36.9551C63.2207 36.541 63.6621 36.334 64.1074 36.334C64.498 36.334 64.8535 36.4766 65.1738 36.7617L64.3477 37.8281C64.1094 37.625 63.8711 37.5234 63.6328 37.5234C63.4688 37.5234 63.3242 37.5566 63.1992 37.623C63.0742 37.6855 62.9648 37.7871 62.8711 37.9277C62.7812 38.0645 62.7051 38.2422 62.6426 38.4609C62.584 38.6797 62.5371 38.9414 62.502 39.2461L62.1621 42H60.8672L61.5469 36.4805H62.8418Z" fill="#083891"/>
<path fill-rule="evenodd" clip-rule="evenodd" d="M42.979 11.2109C44.2242 10.0268 45.0005 8.35404 45.0005 6.5C45.0005 2.91015 42.0903 0 38.5005 0C36.2548 0 34.2751 1.13882 33.1074 2.87046C33.6182 3.3536 34.0805 3.8875 34.4863 4.46406C35.2294 3.00184 36.7479 2 38.5005 2C40.9858 2 43.0005 4.01472 43.0005 6.5C43.0005 7.60602 42.6015 8.61885 41.9395 9.40238C42.3771 9.9406 42.7303 10.5502 42.979 11.2109Z" fill="url(#paint0_linear_78_24237)"/>
<path fill-rule="evenodd" clip-rule="evenodd" d="M17 11C17 15.3628 19.4494 19.1323 23 20.9107V18.6003C20.6102 17.0152 19 14.2291 19 11C19 5.96046 22.9218 2 27.6083 2C31.5839 2 35.0091 4.85004 35.9569 8.79115L35.9599 8.78992C36.0937 9.33674 36.1791 9.90367 36.2108 10.4855C36.8339 10.1732 37.5272 10 38.2493 10C40.8053 10 43 12.1696 43 15C43 16.7105 42.1984 18.1797 41 19.0745V21.3944C43.3573 20.3025 45 17.8501 45 15C45 11.134 41.9776 8.00001 38.2493 8.00001C38.1054 8.00001 37.9626 8.00467 37.821 8.01387C36.5661 3.38976 32.469 0 27.6083 0C21.7495 0 17 4.92487 17 11ZM33.7189 18.2026C33.9286 18.3237 34.2571 18.2708 34.4251 17.9798C34.5171 17.8204 34.6353 17.4894 34.7209 16.9505C34.7551 16.7356 34.7808 16.509 34.7994 16.2764C34.2154 16.6896 33.7729 17.1084 33.5587 17.4794C33.3908 17.7704 33.5092 18.0815 33.7189 18.2026ZM34.7944 13.9217C35.8367 13.3377 36.7192 13.0041 36.7192 13.0041C36.7192 13.0041 36.8346 13.9432 36.8392 15.1264C36.8441 16.4225 36.7159 18.0116 36.157 18.98C35.4541 20.1979 33.9149 20.6254 32.7192 19.9348C31.5235 19.2442 31.1239 17.697 31.8268 16.4792C32.4402 15.4164 33.7046 14.5322 34.7944 13.9217ZM27.1161 19.2204C27.3258 19.3415 27.6543 19.2886 27.8222 18.9976C27.9142 18.8382 28.0324 18.5072 28.1181 17.9683C28.1522 17.7535 28.178 17.5269 28.1966 17.2942C27.6125 17.7074 27.17 18.1262 26.9559 18.4972C26.7879 18.7883 26.9064 19.0993 27.1161 19.2204ZM28.1915 14.9395C29.2339 14.3555 30.1164 14.0219 30.1164 14.0219C30.1164 14.0219 30.2318 14.961 30.2363 16.1442C30.2412 17.4403 30.1131 19.0294 29.5541 19.9979C28.8512 21.2157 27.3121 21.6432 26.1164 20.9526C24.9206 20.262 24.5211 18.7149 25.224 17.497C25.8374 16.4342 27.1018 15.55 28.1915 14.9395ZM36.6793 24.1128C36.5113 24.4039 36.1828 24.4567 35.9731 24.3356C35.7635 24.2145 35.645 23.9035 35.8129 23.6125C36.0271 23.2415 36.4696 22.8227 37.0537 22.4094C37.035 22.6421 37.0093 22.8687 36.9751 23.0835C36.8895 23.6224 36.7713 23.9535 36.6793 24.1128ZM38.9734 19.1372C38.9734 19.1372 38.0909 19.4708 37.0486 20.0547C35.9589 20.6653 34.6944 21.5495 34.0811 22.6122C33.3782 23.8301 33.7777 25.3772 34.9734 26.0678C36.1691 26.7584 37.7083 26.331 38.4112 25.1131C38.9701 24.1447 39.0983 22.5556 39.0934 21.2594C39.0889 20.0762 38.9734 19.1372 38.9734 19.1372ZM29.2548 25.9374C29.4645 26.0585 29.793 26.0057 29.961 25.7146C30.0529 25.5553 30.1712 25.2243 30.2568 24.6854C30.291 24.4705 30.3167 24.2439 30.3353 24.0112C29.7513 24.4245 29.3088 24.8433 29.0946 25.2143C28.9267 25.5053 29.0451 25.8163 29.2548 25.9374ZM30.3303 21.6565C31.3726 21.0726 32.2551 20.739 32.2551 20.739C32.2551 20.739 32.3705 21.678 32.375 22.8612C32.38 24.1574 32.2518 25.7465 31.6929 26.7149C30.99 27.9328 29.4508 28.3602 28.2551 27.6696C27.0594 26.979 26.6598 25.4319 27.3627 24.214C27.9761 23.1513 29.2405 22.2671 30.3303 21.6565Z" fill="url(#paint1_linear_78_24237)"/>
<defs>
<linearGradient id="paint0_linear_78_24237" x1="39.0539" y1="0" x2="39.0539" y2="11.2109" gradientUnits="userSpaceOnUse">
<stop stop-color="#EFC977"/>
<stop offset="1" stop-color="#E07256"/>
</linearGradient>
<linearGradient id="paint1_linear_78_24237" x1="31" y1="0" x2="31" y2="27.9999" gradientUnits="userSpaceOnUse">
<stop stop-color="#95B6F6"/>
<stop offset="1" stop-color="#5193DE"/>
</linearGradient>
</defs>
</svg>
