<svg width="32" height="32" viewBox="0 0 32 32" fill="none" xmlns="http://www.w3.org/2000/svg">
<path fill-rule="evenodd" clip-rule="evenodd" d="M18.5234 18.9983V19.0012C19.037 19.0044 19.5442 19.1209 20.0078 19.3421C20.472 19.5636 20.883 19.8845 21.209 20.2825C21.4941 20.6307 21.7083 21.0316 21.8418 21.4602C21.8609 21.5214 21.8788 21.5834 21.8945 21.6458C21.9887 22.0198 22.0209 22.4066 21.9893 22.7893C21.9787 22.9168 21.9601 23.0441 21.9355 23.1702C21.8986 23.3597 21.8465 23.546 21.7793 23.7258C21.757 23.7856 21.7326 23.8452 21.707 23.9036C21.656 24.0203 21.5988 24.1347 21.5352 24.2454C21.5032 24.301 21.4696 24.3566 21.4346 24.4104C21.3997 24.464 21.3631 24.5169 21.3252 24.5686L21.2061 24.721C20.9621 25.0182 20.6707 25.2743 20.3438 25.4768C20.2895 25.5104 20.233 25.5428 20.1768 25.5735L20.0049 25.6604C19.5998 25.8532 19.1609 25.9664 18.7119 25.9934C18.1984 26.0242 17.6829 25.9419 17.2051 25.7512V25.7503L4 21.053V18.9973L18.5234 18.9983ZM17.9844 23.9046L17.9834 23.9055C18.126 23.9581 18.2755 23.9897 18.4268 23.9973H18.5918C18.7565 23.9874 18.9183 23.9493 19.0703 23.887L19.2197 23.8167C19.3646 23.7376 19.4954 23.635 19.6064 23.5139L19.7109 23.387C19.8085 23.2537 19.8826 23.1044 19.9316 22.9475C19.948 22.8952 19.9621 22.8414 19.9727 22.7874C20.0147 22.5714 20.0078 22.3484 19.9541 22.135C19.9003 21.9215 19.8006 21.7215 19.6611 21.551C19.5216 21.3806 19.3452 21.2426 19.1465 21.1477C18.9479 21.0531 18.7307 21.0035 18.5107 21.0022V20.9983H9.81445L17.9844 23.9046ZM23.7715 8.9944C24.3827 8.95946 24.9938 9.06548 25.5576 9.30397C26.1215 9.54247 26.6237 9.90645 27.0244 10.3694C27.4251 10.8324 27.7139 11.3816 27.8691 11.9739C28.0244 12.5662 28.0419 13.1864 27.9199 13.7864L27.8672 14.01C27.7309 14.5264 27.4924 15.011 27.165 15.4348C26.7908 15.9193 26.3104 16.3118 25.7607 16.5813C25.2128 16.85 24.6102 16.9885 24 16.9885V16.9895H4V14.9895H23.9971V14.9876C24.2265 14.9879 24.4538 14.9488 24.6689 14.8723L24.8799 14.7835C25.0859 14.6824 25.2724 14.5467 25.4316 14.3831L25.5811 14.2112C25.768 13.9691 25.897 13.6867 25.958 13.387C26.0189 13.0873 26.0102 12.7775 25.9326 12.4817C25.8551 12.186 25.7107 11.9121 25.5107 11.6809C25.3106 11.4497 25.06 11.2669 24.7783 11.1477C24.4967 11.0286 24.1911 10.976 23.8857 10.9934C23.5807 11.0109 23.2837 11.098 23.0176 11.2483L22.0322 9.50514C22.5652 9.20397 23.1604 9.02938 23.7715 8.9944Z" fill="url(#paint0_linear_8_1355)"/>
<path d="M6.52051 9.74316L7.41406 9.58594L7.25684 10.4795L8 11L7.25684 11.5205L7.41406 12.4141L6.52051 12.2568L6 13L5.47949 12.2568L4.58594 12.4141L4.74316 11.5205L4 11L4.74316 10.4795L4.58594 9.58594L5.47949 9.74316L6 9L6.52051 9.74316ZM12.6924 9.74316L13.5859 9.58594L13.4277 10.4795L14.1719 11L13.4277 11.5205L13.5859 12.4141L12.6924 12.2568L12.1719 13L11.6514 12.2568L10.7578 12.4141L10.915 11.5205L10.1719 11L10.915 10.4795L10.7578 9.58594L11.6514 9.74316L12.1719 9L12.6924 9.74316ZM18.6924 9.74316L19.5859 9.58594L19.4277 10.4795L20.1719 11L19.4277 11.5205L19.5859 12.4141L18.6924 12.2568L18.1719 13L17.6514 12.2568L16.7578 12.4141L16.915 11.5205L16.1719 11L16.915 10.4795L16.7578 9.58594L17.6514 9.74316L18.1719 9L18.6924 9.74316ZM9.52051 5.74316L10.4141 5.58594L10.2568 6.47949L11 7L10.2568 7.52051L10.4141 8.41406L9.52051 8.25684L9 9L8.47949 8.25684L7.58594 8.41406L7.74316 7.52051L7 7L7.74316 6.47949L7.58594 5.58594L8.47949 5.74316L9 5L9.52051 5.74316ZM15.5205 5.74316L16.4141 5.58594L16.2568 6.47949L17 7L16.2568 7.52051L16.4141 8.41406L15.5205 8.25684L15 9L14.4795 8.25684L13.5859 8.41406L13.7432 7.52051L13 7L13.7432 6.47949L13.5859 5.58594L14.4795 5.74316L15 5L15.5205 5.74316Z" fill="url(#paint1_linear_8_1355)"/>
<path fill-rule="evenodd" clip-rule="evenodd" d="M23.018 11.248L23.0172 11.2485L22.0336 9.50706L22.0325 9.50504L22.0345 9.50394C22.567 9.2034 23.1613 9.02897 23.7718 8.99407C23.8603 8.98901 23.9489 8.9869 24.0373 8.98772C24.559 8.99258 25.0757 9.09954 25.5579 9.3035C26.1218 9.54201 26.6234 9.90681 27.0241 10.3698C27.4248 10.8328 27.7139 11.3816 27.8692 11.9739C28.0245 12.5663 28.0417 13.1864 27.9197 13.7865C27.7976 14.3866 27.5395 14.9507 27.1651 15.4352C26.8451 15.8496 26.4474 16.1963 25.9952 16.4567C25.9185 16.5008 25.8403 16.5424 25.7606 16.5815C25.2108 16.851 24.6066 16.9908 23.9944 16.9899V16.9897H4V14.9897H23.9972L23.9972 14.9875C24.303 14.9879 24.6049 14.9181 24.8795 14.7834C25.1541 14.6488 25.3941 14.4529 25.5811 14.2108C25.7681 13.9688 25.897 13.687 25.958 13.3873C26.019 13.0875 26.0104 12.7777 25.9328 12.4818C25.8552 12.1859 25.7108 11.9118 25.5106 11.6805C25.3105 11.4492 25.0599 11.267 24.7782 11.1478C24.4966 11.0287 24.1913 10.9758 23.886 10.9933C23.581 11.0107 23.2841 11.0978 23.018 11.248ZM17.2058 25.7506L4 21.0525V18.998L18.5239 18.9981V19.0011C19.0376 19.0043 19.5443 19.1207 20.008 19.3419C20.1866 19.4271 20.357 19.527 20.5178 19.6404C20.7752 19.8219 21.0076 20.0379 21.2083 20.283C21.5344 20.6811 21.7686 21.1463 21.8943 21.6454C22.0201 22.1445 22.0342 22.6652 21.9357 23.1703C21.8372 23.6755 21.6286 24.1527 21.3246 24.568C21.0206 24.9833 20.6288 25.3264 20.1771 25.5728C19.8991 25.7245 19.6026 25.8373 19.2959 25.9088C19.1043 25.9534 18.9088 25.982 18.7113 25.9938C18.1977 26.0246 17.6836 25.9417 17.2057 25.751L17.2058 25.7506ZM9.8151 20.9982L18.5103 20.9983L18.5103 21.0016L18.5103 21.002L18.5112 21.002C18.7312 21.0034 18.9483 21.0532 19.1468 21.1479C19.3457 21.2428 19.5212 21.3804 19.6608 21.5509C19.8005 21.7214 19.9008 21.9206 19.9546 22.1344C20.0085 22.3481 20.0145 22.571 19.9723 22.7874C19.9302 23.0037 19.8408 23.2081 19.7106 23.3859C19.5805 23.5637 19.4127 23.7106 19.2193 23.8162C19.0258 23.9217 18.8115 23.9833 18.5916 23.9964C18.3847 24.0089 18.1776 23.9782 17.9835 23.9065L17.9842 23.9045L9.8151 20.9982Z" fill="url(#paint2_linear_8_1355)"/>
<path fill-rule="evenodd" clip-rule="evenodd" d="M11 7L10.2565 7.52045L10.4142 8.41421L9.52045 8.25648L9 9L8.47955 8.25648L7.58579 8.41421L7.74352 7.52045L7 7L7.74352 6.47955L7.58579 5.58579L8.47955 5.74352L9 5L9.52045 5.74352L10.4142 5.58579L10.2565 6.47955L11 7ZM14.1716 11L13.4281 11.5204L13.5858 12.4142L12.6921 12.2565L12.1716 13L11.6512 12.2565L10.7574 12.4142L10.9152 11.5204L10.1716 11L10.9152 10.4796L10.7574 9.58579L11.6512 9.74352L12.1716 9L12.6921 9.74352L13.5858 9.58579L13.4281 10.4796L14.1716 11ZM19.4281 11.5204L20.1716 11L19.4281 10.4796L19.5858 9.58579L18.6921 9.74352L18.1716 9L17.6512 9.74352L16.7574 9.58579L16.9152 10.4796L16.1716 11L16.9152 11.5204L16.7574 12.4142L17.6512 12.2565L18.1716 13L18.6921 12.2565L19.5858 12.4142L19.4281 11.5204ZM17 7L16.2565 7.52045L16.4142 8.41421L15.5204 8.25648L15 9L14.4796 8.25648L13.5858 8.41421L13.7435 7.52045L13 7L13.7435 6.47955L13.5858 5.58579L14.4796 5.74352L15 5L15.5204 5.74352L16.4142 5.58579L16.2565 6.47955L17 7ZM7.25648 11.5204L8 11L7.25648 10.4796L7.41421 9.58579L6.52045 9.74352L6 9L5.47955 9.74352L4.58579 9.58579L4.74352 10.4796L4 11L4.74352 11.5204L4.58579 12.4142L5.47955 12.2565L6 13L6.52045 12.2565L7.41421 12.4142L7.25648 11.5204Z" fill="url(#paint3_linear_8_1355)"/>
<defs>
<linearGradient id="paint0_linear_8_1355" x1="16" y1="8.98788" x2="16" y2="25.9997" gradientUnits="userSpaceOnUse">
<stop stop-color="#CED3EA"/>
<stop offset="1" stop-color="#7E83A9"/>
</linearGradient>
<linearGradient id="paint1_linear_8_1355" x1="12.0859" y1="5" x2="12.0859" y2="13" gradientUnits="userSpaceOnUse">
<stop stop-color="#B2D4F7"/>
<stop offset="1" stop-color="#D9E2F3"/>
</linearGradient>
<linearGradient id="paint2_linear_8_1355" x1="16" y1="8.98755" x2="16" y2="26.0001" gradientUnits="userSpaceOnUse">
<stop stop-color="#CED3EA"/>
<stop offset="1" stop-color="#7E83A9"/>
</linearGradient>
<linearGradient id="paint3_linear_8_1355" x1="12.0858" y1="5" x2="12.0858" y2="13" gradientUnits="userSpaceOnUse">
<stop stop-color="#B2D4F7"/>
<stop offset="1" stop-color="#D9E2F3"/>
</linearGradient>
</defs>
</svg>
